<svg aria-hidden="true" width="0" height="0" style="position:absolute" focusable="false">
<defs>
<symbol id="i-newcomer" viewBox="0 0 24 24"><circle cx="12" cy="12" r="9"/><path d="M15.6 8.4l-2.4 4.8-4.8 2.4 2.4-4.8z"/></symbol>
<symbol id="i-architect" viewBox="0 0 24 24"><path d="M12 3.2l8.4 4.6-8.4 4.6-8.4-4.6z"/><path d="M3.6 12l8.4 4.6 8.4-4.6"/><path d="M3.6 16.4l8.4 4.6 8.4-4.6"/></symbol>
<symbol id="i-developer" viewBox="0 0 24 24"><circle cx="5.5" cy="6" r="2.3"/><circle cx="5.5" cy="18" r="2.3"/><circle cx="18" cy="12" r="2.3"/><path d="M7.6 7.1l8.3 3.9M7.6 16.9l8.3-3.9"/></symbol>
<symbol id="i-prompt" viewBox="0 0 24 24"><path d="M11 3.4l1.7 4.9 4.9 1.7-4.9 1.7L11 16.6l-1.7-4.9L4.4 10l4.9-1.7z"/><path d="M18.2 14.4l.8 2.1 2.1.8-2.1.8-.8 2.1-.8-2.1-2.1-.8 2.1-.8z"/></symbol>
<symbol id="i-read" viewBox="0 0 24 24"><path d="M12 6.6C10.4 5.4 8.4 4.7 6 4.7c-1 0-1.9.1-2.8.4v12.9c.9-.3 1.8-.4 2.8-.4 2.4 0 4.4.7 6 1.9"/><path d="M12 6.6c1.6-1.2 3.6-1.9 6-1.9 1 0 1.9.1 2.8.4v12.9c-.9-.3-1.8-.4-2.8-.4-2.4 0-4.4.7-6 1.9z"/><path d="M12 6.6v12.9"/></symbol>
<symbol id="i-search" viewBox="0 0 24 24"><circle cx="10.5" cy="10.5" r="6.3"/><path d="M15.2 15.2L20.5 20.5"/></symbol>
<symbol id="i-cmd" viewBox="0 0 24 24"><rect x="3" y="4.6" width="18" height="14.8" rx="2.6"/><path d="M7.5 10l2.6 2-2.6 2M12.8 14.4h4"/></symbol>
<symbol id="i-warn" viewBox="0 0 24 24"><path d="M12 4.3l8.6 14.9H3.4z"/><path d="M12 10v4.2"/><path d="M12 17.2h.01"/></symbol>
<symbol id="i-library" viewBox="0 0 24 24"><rect x="3.6" y="3.6" width="7" height="7" rx="1.6"/><rect x="13.4" y="3.6" width="7" height="7" rx="1.6"/><rect x="3.6" y="13.4" width="7" height="7" rx="1.6"/><rect x="13.4" y="13.4" width="7" height="7" rx="1.6"/></symbol>
<symbol id="i-arrow" viewBox="0 0 24 24"><path d="M4.5 12h15M13 5.5l6.5 6.5-6.5 6.5"/></symbol>
<symbol id="i-chevron" viewBox="0 0 24 24"><path d="M9 5l7 7-7 7"/></symbol>
<symbol id="i-check" viewBox="0 0 24 24"><path d="M5 12.5l4.3 4.3 9.2-9.6"/></symbol>
<symbol id="i-flag" viewBox="0 0 24 24"><path d="M6 21V4"/><path d="M6 4.6h11l-2.2 3.7L17 12H6"/></symbol>
</defs>
</svg>